<svg width="80" height="80" fill="none" xmlns="http://www.w3.org/2000/svg"><path d="M43.792 58.2a.75.75 0 00-1.5 0h1.5zm-1.5 2a.75.75 0 001.5 0h-1.5zm-4.534-2a.75.75 0 00-1.5 0h1.5zm-1.5 2a.75.75 0 001.5 0h-1.5zm7.027 6.7a.75.75 0 10-1.5 0h1.5zm-.75 3.1v.75V70zm-4.27-3.1a.75.75 0 00-1.5 0h1.5zm-.75 3.1v.75V70zm-1.033-17.266a.75.75 0 001.053-1.068l-1.053 1.068zm-7.504-1.068a.75.75 0 101.053 1.068l-1.053-1.068zm1.053-7.4a.75.75 0 00-1.053 1.068l1.053-1.068zm7.504 1.068a.75.75 0 10-1.053-1.068l1.053 1.068zm6.034-1.068a.75.75 0 10-1.053 1.068l1.053-1.068zm7.504 1.068a.75.75 0 00-1.053-1.068l1.053 1.068zm-1.053 7.4a.75.75 0 001.053-1.068l-1.053 1.068zm-7.504-1.068a.75.75 0 001.053 1.068l-1.053-1.068zM47.555 64l-.294-.69-.456.194V64h.75zm-2.94 6v-.75.75zm-9.128 0v-.75.75zm-2.94-6h.75v-.5l-.462-.192-.288.692zM9 22.7h-.75H9zm14.5-6.3a.75.75 0 00-1.5 0h1.5zM22 18.1a.75.75 0 001.5 0H22zm-2.35-1.7a.75.75 0 00-1.5 0h1.5zm-1.5 1.7a.75.75 0 001.5 0h-1.5zm-2.45-1.7a.75.75 0 00-1.5 0h1.5zm-1.5 1.7a.75.75 0 101.5 0h-1.5zm9.5 43.65a.75.75 0 000-1.5v1.5zm32.6-1.5a.75.75 0 000 1.5v-1.5zM42.292 58.2v2h1.5v-2h-1.5zm-6.034 0v2h1.5v-2h-1.5zm5.527 8.7V70h1.5v-3.1h-1.5zm-5.02 0V70h1.5v-3.1h-1.5zm10.04-2.9v3.15h1.5V64h-1.5zm-2.19 5.25h-2.08v1.5h2.08v-1.5zm-2.08 0h-5.02v1.5h5.02v-1.5zm-5.02 0h-2.028v1.5h2.029v-1.5zm-4.218-2.1V64h-1.5v3.15h1.5zM9 23.45h62v-1.5H9v1.5zm13-7.05v1.7h1.5v-1.7H22zm-3.85 0v1.7h1.5v-1.7h-1.5zm-3.95 0v1.7h1.5v-1.7h-1.5zm9.5 43.85H15v1.5h8.7v-1.5zM9.75 22.7V18h-1.5v4.7h1.5zM15 12.75h50v-1.5H15v1.5zM70.25 18v4.7h1.5V18h-1.5zm0 4.7V55h1.5V22.7h-1.5zM65 60.25h-8.7v1.5H65v-1.5zM9.75 55V22.7h-1.5V55h1.5zm25.737 14.25c-1.176 0-2.19-.965-2.19-2.1h-1.5c0 2.033 1.757 3.6 3.69 3.6v-1.5zm11.318-2.1c0 1.135-1.014 2.1-2.19 2.1v1.5c1.933 0 3.69-1.567 3.69-3.6h-1.5zm-13.97-3.842C26.792 60.789 22.75 54.309 22.75 47.8h-1.5c0 7.073 4.369 14.125 11.008 16.892l.577-1.384zM22.75 47.8c0-9.449 7.89-17.05 17.3-17.05v-1.5c-10.207 0-18.8 8.242-18.8 18.55h1.5zm17.3-17.05c9.426 0 17.2 7.63 17.2 17.05h1.5c0-10.266-8.463-18.55-18.7-18.55v1.5zm17.2 17.05c0 6.35-4.098 13-9.99 15.51l.589 1.38c6.483-2.763 10.901-9.981 10.901-16.89h-1.5zm-19.715 3.866l-7.504-7.4-1.053 1.068 7.504 7.4 1.053-1.068zm-1.053-7.4l-7.504 7.4 1.053 1.068 7.504-7.4-1.053-1.068zm6.034 1.068l7.504 7.4 1.053-1.068-7.504-7.4-1.053 1.068zm1.053 7.4l7.504-7.4-1.053-1.068-7.504 7.4 1.053 1.068zM70.25 55c0 2.9-2.35 5.25-5.25 5.25v1.5A6.75 6.75 0 0071.75 55h-1.5zM65 12.75c2.9 0 5.25 2.35 5.25 5.25h1.5A6.75 6.75 0 0065 11.25v1.5zM9.75 18c0-2.9 2.35-5.25 5.25-5.25v-1.5A6.75 6.75 0 008.25 18h1.5zM15 60.25A5.25 5.25 0 019.75 55h-1.5A6.75 6.75 0 0015 61.75v-1.5z" fill="#FF7800"/></svg>