<svg width="80" height="80" fill="none" xmlns="http://www.w3.org/2000/svg"><path d="M25.105 43.376c-7.998 1.622-12.565 5.007-13.698 10.152-.918 4.168-1.395 7.47-1.334 9.964 0 1.948 1.537 3.508 3.494 3.508h40.774c1.867 0 3.585-1.563 3.585-3.508.06-2.495-.366-5.8-1.333-9.964-1.195-5.145-5.762-8.53-13.698-10.152m3.273-16.403c1.011.326 1.921 2.245 1.921 3.305 0 1.708-1.012 3.67-2.896 3.742-1.76 4.837-5.8 8.983-11.17 8.983-5.341 0-9.558-4.058-11.17-8.983-1.835-.068-2.942-2.06-2.942-3.742 0-1.233.428-2.508 1.404-3.305m24.853 0c-4.481-.931-8.048-2.701-10.699-5.31-2.492-2.483-4.875-3.415-7.148-2.794-2.492.838-4.827 3.54-7.006 8.104m24.853 0C45.928 20.138 41.04 13 33.765 13c-6.692 0-11.729 6.229-12.308 12.623l-.142 1.35m36.256 20.609c6.524 1.333 10.278 4.115 11.26 8.345.795 3.423 1.146 6.139 1.096 8.19 0 1.598-1.412 2.883-2.947 2.883h-7.244m.526-32.901c.831.267 1.58 1.845 1.58 2.716 0 1.404-.832 3.017-2.381 3.077-.877 2.408-2.441 4.608-4.52 5.969m5.32-11.762c-3.682-.766-6.614-2.22-8.793-4.365a11.98 11.98 0 00-1.4-1.207M60.261 34.1c-.197-5.619-4.215-11.486-10.195-11.486-.626 0-1.235.067-1.823.192" stroke="#FF7800" stroke-width="1.5" stroke-linecap="round" stroke-linejoin="round"/></svg>