<svg width="80" height="80" fill="none" xmlns="http://www.w3.org/2000/svg"><path d="M44.525 61.954c-3.6 1.7-7.483 2.55-11.65 2.55-16.29 0-28.854-14.966-26.75-30.875m0 0l2.1 5.975 3.55 3.75-1.05-4.4 5.05-8.35 2.85-.9v-3.85l-4.4-2.5 1.5-1.6 3.75 1.35 1.3-5.85-5.4-.4M6.125 33.63c.859-6.494 4.22-12.577 9.25-16.775m0 0a26.56 26.56 0 015.5-3.65m0 0c2.665-1.32 5.532-2.154 8.6-2.5m-8.6 2.5l4 1.5-1 6.8 5.15-2.65 2.5-5.5-2.05-2.65m0 0c5.05-.608 10.313.1 14.925 2.275m0 0l-2.375 6.875-2.25.9-3.15-1.25-4 3.7 2.65 1.4 1.35-1.85 2.1 1.45-2.25 3.9-2.45-1.25-.75 1.65-3.4 1.5-1 1.35.35 2.6 4.55-2.7 1.6 1h3.35l2.9 2.1-.6 1.35 3.5 3.4M44.4 12.98c8.54 4.005 14.583 12.624 15.375 22.025m-30.3-9.25l-2.7 2.5m16.25 18.5l-1.05 1.25v2.85l-4.6 5-1.35-.15-3.4-11.1-3.15.85-3.95-3.35 2.75-4.15 5.25-2.5.5 1.75 4.85.3 4.15 4.45m28-1.25l-9.25-2.7c-1.593-.53-2.65-.551-4.25 0l-9.15 2.7c-1.76.495-3.1 1.917-3.1 3.8v6.5c0 2.333.283 4.45.85 6.35 1.567 4.933 5.733 9.233 12.5 12.9a2.19 2.19 0 002 0c6.767-3.667 10.983-7.967 12.65-12.9.567-2.067.85-4.183.85-6.35v-6.5c0-1.8-1.443-3.303-3.1-3.8zm-59.25 2.55l1.5-1.75 9.2 5.2.05 4.25-1.3 4.15 3 5.35-3.85-2.5-7.35-10.6-1.25-4.1z" stroke="#FF7800" stroke-width="1.5" stroke-linecap="round" stroke-linejoin="round"/></svg>